<?xml version="1.0" encoding="UTF-8" standalone="no"?>
<svg
   xmlns:dc="http://purl.org/dc/elements/1.1/"
   xmlns:cc="http://creativecommons.org/ns#"
   xmlns:rdf="http://www.w3.org/1999/02/22-rdf-syntax-ns#"
   xmlns:svg="http://www.w3.org/2000/svg"
   xmlns="http://www.w3.org/2000/svg"
   xmlns:sodipodi="http://sodipodi.sourceforge.net/DTD/sodipodi-0.dtd"
   xmlns:inkscape="http://www.inkscape.org/namespaces/inkscape"
   width="640"
   height="480"
   viewBox="0 0 169.33333 127"
   version="1.1"
   id="svg4819"
   inkscape:version="1.0.2-2 (e86c870879, 2021-01-15)"
   sodipodi:docname="Slide6.svg"
   inkscape:export-filename="C:\Users\Silvio Mayolo\Documents\SquaredudeAndCirclegirl\art\Slide6.png"
   inkscape:export-xdpi="96"
   inkscape:export-ydpi="96">
  <defs
     id="defs4813" />
  <sodipodi:namedview
     id="base"
     pagecolor="#ffffff"
     bordercolor="#666666"
     borderopacity="1.0"
     inkscape:pageopacity="0.0"
     inkscape:pageshadow="2"
     inkscape:zoom="0.98994949"
     inkscape:cx="191.243"
     inkscape:cy="261.21162"
     inkscape:document-units="mm"
     inkscape:current-layer="layer1"
     inkscape:document-rotation="0"
     showgrid="false"
     units="px"
     inkscape:window-width="1920"
     inkscape:window-height="1017"
     inkscape:window-x="-8"
     inkscape:window-y="-8"
     inkscape:window-maximized="1"
     inkscape:snap-global="false" />
  <metadata
     id="metadata4816">
    <rdf:RDF>
      <cc:Work
         rdf:about="">
        <dc:format>image/svg+xml</dc:format>
        <dc:type
           rdf:resource="http://purl.org/dc/dcmitype/StillImage" />
        <dc:title />
      </cc:Work>
    </rdf:RDF>
  </metadata>
  <g
     inkscape:label="Layer 1"
     inkscape:groupmode="layer"
     id="layer1">
    <rect
       style="fill:#616161;stroke:#000000;stroke-width:0.65841px;stop-color:#000000"
       id="rect4706"
       width="175.10802"
       height="133.15268"
       x="-3.6432931"
       y="-1.5644357" />
    <ellipse
       style="font-variation-settings:normal;opacity:1;mix-blend-mode:normal;vector-effect:none;fill:#ff4b4b;fill-opacity:1;stroke:none;stroke-width:0.763468px;stroke-linecap:butt;stroke-linejoin:miter;stroke-miterlimit:4;stroke-dasharray:none;stroke-dashoffset:0;stroke-opacity:1;stop-color:#000000;stop-opacity:1"
       id="path5576"
       cx="56.794773"
       cy="78.710876"
       rx="1.6036172"
       ry="1.7372519" />
    <path
       style="fill:none;stroke:#000000;stroke-width:0.264583px;stroke-linecap:butt;stroke-linejoin:miter;stroke-opacity:1"
       d="M -40.624969,115.19317 84.72444,56.928408 191.36498,132.56568"
       id="path5430" />
    <path
       style="fill:none;stroke:#000000;stroke-width:0.264583px;stroke-linecap:butt;stroke-linejoin:miter;stroke-opacity:1"
       d="m 84.72444,56.928408 4.276312,-68.955537"
       id="path5432" />
    <ellipse
       style="font-variation-settings:normal;opacity:1;mix-blend-mode:normal;vector-effect:none;fill:#ff4b4b;fill-opacity:1;stroke:none;stroke-width:0.763468px;stroke-linecap:butt;stroke-linejoin:miter;stroke-miterlimit:4;stroke-dasharray:none;stroke-dashoffset:0;stroke-opacity:1;stop-color:#000000;stop-opacity:1"
       id="ellipse5588"
       cx="60.498943"
       cy="82.415047"
       rx="1.6036172"
       ry="1.7372519" />
    <g
       id="g5570"
       transform="rotate(-56.832684,58.816874,84.019575)">
      <rect
         style="fill:#a5a5a5;fill-opacity:1;stroke:#000000;stroke-width:0.763468px;stop-color:#000000"
         id="rect5527"
         width="7.7508163"
         height="12.294398"
         x="53.453903"
         y="76.439087" />
      <path
         style="font-variation-settings:normal;opacity:1;vector-effect:none;fill:#a5a5a5;fill-opacity:1;stroke:#000000;stroke-width:0.763468px;stroke-linecap:butt;stroke-linejoin:miter;stroke-miterlimit:4;stroke-dasharray:none;stroke-dashoffset:0;stroke-opacity:1;stop-color:#000000;stop-opacity:1"
         d="M 53.453902,76.439087 50.2789,73.264082 v 12.294396 l 3.175002,3.175003 z"
         id="path5531" />
      <path
         style="font-variation-settings:normal;opacity:1;vector-effect:none;fill:#a5a5a5;fill-opacity:1;stroke:#000000;stroke-width:0.763468px;stroke-linecap:butt;stroke-linejoin:miter;stroke-miterlimit:4;stroke-dasharray:none;stroke-dashoffset:0;stroke-opacity:1;stop-color:#000000;stop-opacity:1"
         d="m 53.453902,76.439087 h 7.750816 L 58.029715,73.264082 H 50.2789 l 3.175002,3.175005"
         id="path5533" />
    </g>
    <path
       style="fill:none;stroke:#000000;stroke-width:0.264583px;stroke-linecap:butt;stroke-linejoin:miter;stroke-opacity:1"
       d="m 49.578498,81.650839 c -0.290352,-0.04689 -0.635313,-0.568129 -0.935445,-0.668173 -0.591109,-0.197036 -2.383666,-0.630884 -3.073599,-0.400905 -0.730221,0.243409 -1.920907,1.035484 -2.271792,1.737251 -0.03984,0.07968 0.02162,0.18084 0,0.267272 -0.05818,0.232719 -0.209089,0.435454 -0.267269,0.668173 -0.07596,0.303824 -0.05703,0.629039 -0.133635,0.935443 -0.07337,0.293473 0.07337,0.641971 0,0.935445 -0.07835,0.313414 -0.181653,0.544957 -0.267269,0.801806 -0.115819,0.347456 -0.08903,5.479214 0.133636,6.1472 0.03984,0.119528 0.210923,0.15458 0.267268,0.267268 0.127469,0.25494 0.287843,1.130798 0.400905,1.469983 0.232153,0.69646 -0.0095,1.422368 0.133633,2.138156 0.08679,0.433959 0.615233,0.829559 0.801809,1.202714 0.03984,0.07968 -0.03309,0.184552 0,0.267269 0.09647,0.241162 0.245063,0.460383 0.400905,0.668173 0.990759,1.321012 3.268289,1.448023 4.810853,1.737254 0.318735,0.05976 0.61492,0.217962 0.935442,0.267272 0.758804,0.11674 3.401922,0.10582 4.142679,0 0.816165,-0.116599 1.448218,-0.697577 2.138156,-1.069081 0.01315,-0.0071 1.281126,-0.526534 1.469983,-0.668173 0.03563,-0.02673 -0.0315,-0.102137 0,-0.133636 0.06299,-0.06299 0.187584,0.03984 0.267268,0 0.319731,-0.159866 0.922936,-0.55001 1.202712,-0.801809 0.468246,-0.421421 0.933058,-0.852398 1.336349,-1.336347 0.181155,-0.217387 0.277395,-0.496745 0.534538,-0.668173 0.216117,-0.144079 0.48451,-0.217242 0.668173,-0.400905 0.140865,-0.140864 0.156769,-0.368787 0.267272,-0.53454 0.174027,-0.261044 0.556376,-0.605462 0.801806,-0.801807 0.156242,-0.242514 0.460383,-0.245062 0.668174,-0.400905 0.302382,-0.226785 0.517353,-0.55291 0.801809,-0.801809 0.167619,-0.146664 0.405082,-0.219665 0.53454,-0.400904 0.324417,-0.454181 0.492205,-1.005576 0.80181,-1.469983 0.139774,-0.209664 0.377123,-0.337772 0.534537,-0.534538 0.576022,-0.720029 1.857259,-2.244534 2.271792,-3.073601 0.428601,-0.857205 0.228666,-2.563812 0.534538,-3.073598 0.596148,-0.993582 1.3604,-1.840145 2.004523,-2.80633 0.442627,-0.663942 0.699005,-1.508522 1.202711,-2.138156 0.11806,-0.147576 0.300741,-0.240644 0.400905,-0.400904 0.284472,-0.455155 0.600022,-1.802736 0.935445,-2.138157 0.113567,-0.113567 0.287334,-0.153701 0.400901,-0.267268 0.201687,-0.201687 0.332854,-0.46649 0.534541,-0.668176 0.74278,-0.742778 1.865696,-1.099244 2.672694,-1.603616 0.52451,-0.327819 0.928946,-0.932196 1.469982,-1.202714 0.932633,-0.466315 0.148098,0.256939 1.069078,-0.400905 0.579742,-0.414099 1.095825,-0.846362 1.737254,-1.202711 0.134594,-0.588838 0.549823,-0.141277 0.801807,-0.267271 0.03984,-0.01992 -0.0315,-0.102135 0,-0.133633 0.253947,-0.253945 0.60025,-0.40562 0.935445,-0.534541 0.342842,-0.131863 0.719042,-0.155892 1.069078,-0.267269 1.396275,-0.444269 2.748574,-1.018947 4.142676,-1.469982 0.751012,-0.242975 1.498825,-0.508249 2.271792,-0.668174 0.525267,-0.108675 1.072616,-0.05778 1.603616,-0.133635 0.233767,-0.03339 0.352266,-0.189151 0.53454,-0.267269 0.517896,-0.221954 1.092023,-0.298419 1.603616,-0.534538 0.326078,-0.150498 0.614228,-0.37393 0.935445,-0.53454 0.125992,-0.063 0.288213,-0.04912 0.400905,-0.133633 0.07968,-0.05976 0.05395,-0.207508 0.133633,-0.267272 0.112691,-0.08452 0.283699,-0.0555 0.400904,-0.133633 0.157248,-0.104833 0.247119,-0.291058 0.400905,-0.400905 0.36155,-0.258251 0.843629,-0.398862 1.202714,-0.668173 0.100793,-0.0756 0.150288,-0.220477 0.267269,-0.267272 0.124076,-0.04963 0.289713,0.07413 0.400904,0 0.07413,-0.04942 -0.02817,-0.18275 0,-0.267268 0.101886,-0.30566 0.267269,0.04217 0.267269,-0.267269"
       id="path5574" />
    <g
       transform="matrix(2.0245016,0,0,2.0245016,-406.28663,25.96566)"
       id="g1275">
      <g
         transform="matrix(0.45340262,0,0,0.45340262,159.22732,12.933756)"
         style="fill:#7a5aa5;fill-opacity:1"
         id="g1245">
        <path
           style="fill:#7a5aa5;fill-opacity:1;stroke:#000000;stroke-width:0.264583px;stroke-linecap:butt;stroke-linejoin:miter;stroke-opacity:1"
           d="M 175.27044,39.944331 178.71157,55.607457 190.58733,41.198 Z"
           id="path1227" />
        <path
           style="fill:#7a5aa5;fill-opacity:1;stroke:#000000;stroke-width:0.264583px;stroke-linecap:butt;stroke-linejoin:miter;stroke-opacity:1"
           d="m 178.71157,55.607457 -7.50368,-5.962425 4.06255,-9.700701 z"
           id="path1229" />
        <path
           style="fill:#7a5aa5;fill-opacity:1;stroke:#000000;stroke-width:0.264583px;stroke-linecap:butt;stroke-linejoin:miter;stroke-opacity:1"
           d="M 178.71157,55.607457 191.20486,53.296489 190.58733,41.198 Z"
           id="path1231" />
        <path
           style="fill:#7a5aa5;fill-opacity:1;stroke:#000000;stroke-width:0.264583px;stroke-linecap:butt;stroke-linejoin:miter;stroke-opacity:1"
           d="m 178.71157,55.607457 6.49676,1.013376 5.99653,-3.324344 z"
           id="path1233" />
        <path
           style="fill:#7a5aa5;fill-opacity:1;stroke:#000000;stroke-width:0.264583px;stroke-linecap:butt;stroke-linejoin:miter;stroke-opacity:1"
           d="M 191.20486,53.296489 197.23008,39.393976 190.58733,41.198 Z"
           id="path1235" />
        <path
           style="fill:#7a5aa5;fill-opacity:1;stroke:#000000;stroke-width:0.264583px;stroke-linecap:butt;stroke-linejoin:miter;stroke-opacity:1"
           d="M 175.27044,39.944331 186.00208,30.691666 190.58733,41.198 Z"
           id="path1237" />
        <path
           style="fill:#7a5aa5;fill-opacity:1;stroke:#000000;stroke-width:0.264583px;stroke-linecap:butt;stroke-linejoin:miter;stroke-opacity:1"
           d="m 186.00208,30.691666 11.228,8.70231 -6.64275,1.804024 z"
           id="path1239" />
        <path
           style="fill:#7a5aa5;fill-opacity:1;stroke:#000000;stroke-width:0.264583px;stroke-linecap:butt;stroke-linejoin:miter;stroke-opacity:1"
           d="m 171.20789,49.645032 1.75442,-11.049973 2.30813,1.349272 z"
           id="path1241" />
        <path
           style="fill:#7a5aa5;fill-opacity:1;stroke:#000000;stroke-width:0.264583px;stroke-linecap:butt;stroke-linejoin:miter;stroke-opacity:1"
           d="m 172.96231,38.595059 13.03977,-7.903393 -10.73164,9.252665 z"
           id="path1243" />
      </g>
      <g
         id="g1038"
         style="fill:#7a5aa5;fill-opacity:1"
         transform="translate(58.580155,-28.181842)">
        <path
           id="path1009"
           d="M 175.27044,39.944331 178.71157,55.607457 190.58733,41.198 Z"
           style="fill:#7a5aa5;fill-opacity:1;stroke:#000000;stroke-width:0.264583px;stroke-linecap:butt;stroke-linejoin:miter;stroke-opacity:1" />
        <path
           id="path1011"
           d="m 178.71157,55.607457 -7.50368,-5.962425 4.06255,-9.700701 z"
           style="fill:#7a5aa5;fill-opacity:1;stroke:#000000;stroke-width:0.264583px;stroke-linecap:butt;stroke-linejoin:miter;stroke-opacity:1" />
        <path
           id="path1015"
           d="M 178.71157,55.607457 191.20486,53.296489 190.58733,41.198 Z"
           style="fill:#7a5aa5;fill-opacity:1;stroke:#000000;stroke-width:0.264583px;stroke-linecap:butt;stroke-linejoin:miter;stroke-opacity:1" />
        <path
           id="path1017"
           d="m 178.71157,55.607457 6.49676,1.013376 5.99653,-3.324344 z"
           style="fill:#7a5aa5;fill-opacity:1;stroke:#000000;stroke-width:0.264583px;stroke-linecap:butt;stroke-linejoin:miter;stroke-opacity:1" />
        <path
           id="path1019"
           d="M 191.20486,53.296489 197.23008,39.393976 190.58733,41.198 Z"
           style="fill:#7a5aa5;fill-opacity:1;stroke:#000000;stroke-width:0.264583px;stroke-linecap:butt;stroke-linejoin:miter;stroke-opacity:1" />
        <path
           id="path1021"
           d="M 175.27044,39.944331 186.00208,30.691666 190.58733,41.198 Z"
           style="fill:#7a5aa5;fill-opacity:1;stroke:#000000;stroke-width:0.264583px;stroke-linecap:butt;stroke-linejoin:miter;stroke-opacity:1" />
        <path
           id="path1023"
           d="m 186.00208,30.691666 11.228,8.70231 -6.64275,1.804024 z"
           style="fill:#7a5aa5;fill-opacity:1;stroke:#000000;stroke-width:0.264583px;stroke-linecap:butt;stroke-linejoin:miter;stroke-opacity:1" />
        <path
           id="path1025"
           d="m 171.20789,49.645032 1.75442,-11.049973 2.30813,1.349272 z"
           style="fill:#7a5aa5;fill-opacity:1;stroke:#000000;stroke-width:0.264583px;stroke-linecap:butt;stroke-linejoin:miter;stroke-opacity:1" />
        <path
           id="path1027"
           d="m 172.96231,38.595059 13.03977,-7.903393 -10.73164,9.252665 z"
           style="fill:#7a5aa5;fill-opacity:1;stroke:#000000;stroke-width:0.264583px;stroke-linecap:butt;stroke-linejoin:miter;stroke-opacity:1" />
      </g>
      <rect
         style="font-variation-settings:normal;opacity:1;vector-effect:none;fill:#000000;fill-opacity:1;stroke:#000000;stroke-width:0.264583px;stroke-linecap:butt;stroke-linejoin:miter;stroke-miterlimit:4;stroke-dasharray:none;stroke-dashoffset:0;stroke-opacity:1;stop-color:#000000;stop-opacity:1"
         id="rect1187"
         width="1.7192749"
         height="0.59285784"
         x="194.82681"
         y="135.57213"
         transform="rotate(-29.709351)" />
      <rect
         transform="matrix(-0.86855064,-0.49560043,-0.49560043,0.86855064,0,0)"
         y="-100.92233"
         x="-219.96861"
         height="0.59285784"
         width="1.7192749"
         id="rect1189"
         style="font-variation-settings:normal;opacity:1;vector-effect:none;fill:#000000;fill-opacity:1;stroke:#000000;stroke-width:0.264583px;stroke-linecap:butt;stroke-linejoin:miter;stroke-miterlimit:4;stroke-dasharray:none;stroke-dashoffset:0;stroke-opacity:1;stop-color:#000000;stop-opacity:1" />
      <rect
         transform="rotate(-29.709351)"
         y="132.31854"
         x="201.85291"
         height="0.51285112"
         width="3.2471902"
         id="rect1191"
         style="font-variation-settings:normal;opacity:1;vector-effect:none;fill:#000000;fill-opacity:1;stroke:#000000;stroke-width:0.264583px;stroke-linecap:butt;stroke-linejoin:miter;stroke-miterlimit:4;stroke-dasharray:none;stroke-dashoffset:0;stroke-opacity:1;stop-color:#000000;stop-opacity:1" />
      <rect
         style="font-variation-settings:normal;opacity:1;vector-effect:none;fill:#000000;fill-opacity:1;stroke:#000000;stroke-width:0.264583px;stroke-linecap:butt;stroke-linejoin:miter;stroke-miterlimit:4;stroke-dasharray:none;stroke-dashoffset:0;stroke-opacity:1;stop-color:#000000;stop-opacity:1"
         id="rect1193"
         width="3.2471902"
         height="0.51285112"
         x="-214.4325"
         y="-105.79884"
         transform="matrix(-0.86855064,-0.49560043,-0.49560043,0.86855064,0,0)" />
      <path
         sodipodi:type="star"
         style="font-variation-settings:normal;opacity:1;vector-effect:none;fill:#ffffff;fill-opacity:1;stroke:#000000;stroke-width:0.264583px;stroke-linecap:butt;stroke-linejoin:miter;stroke-miterlimit:4;stroke-dasharray:none;stroke-dashoffset:0;stroke-opacity:1;stop-color:#000000;stop-opacity:1"
         id="path1199"
         sodipodi:sides="5"
         sodipodi:cx="243.10876"
         sodipodi:cy="15.72102"
         sodipodi:r1="0.83639252"
         sodipodi:r2="0.67665577"
         sodipodi:arg1="-0.012560781"
         sodipodi:arg2="0.61575775"
         inkscape:flatsided="true"
         inkscape:rounded="0"
         inkscape:randomized="0"
         inkscape:transform-center-x="-0.020767238"
         inkscape:transform-center-y="-0.088705446"
         transform="matrix(1.3206292,-0.32665164,0.32665164,1.3206292,-82.598039,74.35919)"
         d="m 243.94509,15.710514 -0.56789,0.802653 -0.93886,-0.292068 -0.0123,-0.983161 0.93122,-0.315558 z" />
      <path
         transform="matrix(1.2624893,-0.50683687,0.50683687,1.2624893,-78.650875,118.82678)"
         inkscape:transform-center-y="-0.081528239"
         inkscape:transform-center-x="0.02815766"
         inkscape:randomized="0"
         inkscape:rounded="0"
         inkscape:flatsided="true"
         sodipodi:arg2="0.61575775"
         sodipodi:arg1="-0.012560781"
         sodipodi:r2="0.67665577"
         sodipodi:r1="0.83639252"
         sodipodi:cy="15.72102"
         sodipodi:cx="243.10876"
         sodipodi:sides="5"
         id="path1203"
         style="font-variation-settings:normal;opacity:1;vector-effect:none;fill:#ffffff;fill-opacity:1;stroke:#000000;stroke-width:0.264583px;stroke-linecap:butt;stroke-linejoin:miter;stroke-miterlimit:4;stroke-dasharray:none;stroke-dashoffset:0;stroke-opacity:1;stop-color:#000000;stop-opacity:1"
         sodipodi:type="star"
         d="m 243.94509,15.710514 -0.56789,0.802653 -0.93886,-0.292068 -0.0123,-0.983161 0.93122,-0.315558 z" />
      <path
         id="path1207"
         style="font-variation-settings:normal;opacity:1;vector-effect:none;fill:#000000;fill-opacity:1;stroke:#000000;stroke-width:0.999999px;stroke-linecap:butt;stroke-linejoin:miter;stroke-miterlimit:4;stroke-dasharray:none;stroke-dashoffset:0;stroke-opacity:1;stop-color:#000000;stop-opacity:1"
         d="m 891.70312,56.962891 a 3.6765753,3.6765753 0 0 0 -2.71093,1.191406 l 1.64062,3.939453 4.58203,-0.367188 a 3.6765753,3.6765753 0 0 0 0.16407,-1.08789 3.6765753,3.6765753 0 0 0 -3.67579,-3.675781 z"
         transform="scale(0.26458333)" />
      <path
         id="circle1214"
         style="font-variation-settings:normal;opacity:1;vector-effect:none;fill:#000000;fill-opacity:1;stroke:#000000;stroke-width:0.999999px;stroke-linecap:butt;stroke-linejoin:miter;stroke-miterlimit:4;stroke-dasharray:none;stroke-dashoffset:0;stroke-opacity:1;stop-color:#000000;stop-opacity:1"
         d="m 918.73047,57.669922 a 3.6765753,3.6765753 0 0 0 -1.95313,0.560547 l 1.16407,4.464843 4.10156,0.242188 a 3.6765753,3.6765753 0 0 0 0.36328,-1.591797 3.6765753,3.6765753 0 0 0 -3.67578,-3.675781 z"
         transform="scale(0.26458333)" />
    </g>
  </g>
</svg>
